<svg xmlns="http://www.w3.org/2000/svg" viewBox="0 0 256 256">
  <defs>
    <linearGradient id="grad" x1="0%" y1="0%" x2="100%" y2="100%">
      <stop offset="0%" stop-color="#ff3b67" />
      <stop offset="100%" stop-color="#ff9aa7" />
    </linearGradient>
  </defs>
  <rect width="256" height="256" rx="64" fill="#fff0f2" />
  <path d="M128 220c-40-28-95-85-95-138 0-35 28-63 63-63 23 0 37 12 47 25 10-13 24-25 47-25 35 0 63 28 63 63 0 53-55 110-95 138z" fill="url(#grad)" />
  <path d="M128 196c-30-22-72-67-72-106 0-28 22-50 50-50 18 0 29 10 38 21 9-11 20-21 38-21 28 0 50 22 50 50 0 39-42 84-72 106z" fill="#ffe5ec" opacity="0.8" />
</svg>
